<?xml version="1.0" encoding="utf-8"?>
<!-- Generator: Adobe Illustrator 24.3.0, SVG Export Plug-In . SVG Version: 6.00 Build 0)  -->
<svg version="1.1" id="Capa_1" xmlns="http://www.w3.org/2000/svg" xmlns:xlink="http://www.w3.org/1999/xlink" x="0px" y="0px"
	 viewBox="0 0 247.767 109.412" style="enable-background:new 0 0 247.767 109.412;" xml:space="preserve">
<style type="text/css">
	.st0{fill:#FFFFFF;}
	.st1{fill-rule:evenodd;clip-rule:evenodd;fill:#FFFFFF;}
	.st2{fill:#E5E5E5;}
	.st3{fill-rule:evenodd;clip-rule:evenodd;fill:#E5E5E5;}
	.st4{fill:#D0D0D0;}
	.st5{fill:#FEFEFE;}
	.st6{clip-path:url(#SVGID_1_);}
	.st7{clip-path:url(#SVGID_2_);fill:#FFFFFF;}
	.st8{clip-path:url(#SVGID_3_);fill:#FFFFFF;}
	.st9{clip-path:url(#SVGID_4_);fill:#FFFFFF;}
	.st10{clip-path:url(#SVGID_5_);fill:#FFFFFF;}
	.st11{clip-path:url(#SVGID_6_);fill:#FFFFFF;}
	.st12{clip-path:url(#SVGID_7_);}
	.st13{clip-path:url(#SVGID_8_);fill:#FFFFFF;}
	.st14{clip-path:url(#SVGID_9_);}
	.st15{clip-path:url(#SVGID_10_);fill:#FFFFFF;}
	.st16{clip-path:url(#SVGID_11_);fill:#FFFFFF;}
	.st17{clip-path:url(#SVGID_12_);fill:#FFFFFF;}
	.st18{clip-path:url(#SVGID_13_);fill:#FFFFFF;}
	.st19{clip-path:url(#SVGID_14_);}
	.st20{clip-path:url(#SVGID_15_);fill:#FFFFFF;}
	.st21{clip-path:url(#SVGID_16_);fill:#FFFFFF;}
	.st22{clip-path:url(#SVGID_17_);fill:#FFFFFF;}
	.st23{clip-path:url(#SVGID_18_);fill:#FFFFFF;}
	.st24{clip-path:url(#SVGID_19_);fill:#FFFFFF;}
	.st25{clip-path:url(#SVGID_20_);fill:#FEFEFE;}
	.st26{clip-path:url(#SVGID_20_);fill:#FFFFFF;}
	.st27{clip-path:url(#SVGID_21_);}
	.st28{clip-path:url(#SVGID_22_);fill:#FFFFFF;}
	.st29{clip-path:url(#SVGID_23_);fill:#FFFFFF;}
	.st30{fill-rule:evenodd;clip-rule:evenodd;fill:#9E9D9C;}
	.st31{fill:#A4A4A4;}
	.st32{fill-rule:evenodd;clip-rule:evenodd;fill:#D5D5D5;}
	.st33{fill:none;stroke:#FFFFFF;stroke-miterlimit:10;}
	.st34{font-family:'TrajanPro-Bold';}
	.st35{font-size:16px;}
</style>
<g>
	<g>
		<path class="st0" d="M130.51,48.486c-1.745-1.758-4.075-4.045-6.683-6.505c-8.484-8.005-15.179-11.706-15.212-11.721l4.948,1.993
			c0.132,0.066,3.03,0.837,11.612,8.933c2.456,2.316,4.515,4.593,6.052,6.424"/>
		<path class="st0" d="M131.103,47.766c-12.398-14.396-22.345-17.395-22.345-17.395c5.216,1.029,8.744,4.08,13.996,8.302
			c2.92,2.35,6.203,6.037,8.543,8.849"/>
		<path class="st0" d="M109.679,12.22l-0.532,0.561l0.628,0.718c0,0-0.599,0.625-1.033,0.521
			c-0.434-0.106-11.035-9.596-11.035-9.596l9.993,10.072c0,0,0.522,0.517,0.867,0.558c0.43,0.05,1.068-0.236,1.068-0.236
			s0.663-0.46,0.885-0.68c0.249,0.268,4.216,4.568,4.216,4.568v0.522l0.349,0.536l0.52-0.151l1.685,1.721l0.849-1.035"/>
		<path class="st1" d="M109.617,12.462l-0.215,0.215c0,0,7.986,8.036,7.937,8.052c-0.049,0.017,0.199-0.661,0.199-0.661"/>
		<polyline class="st1" points="109.774,13.5 110.506,14.15 110.041,14.524 109.387,13.838 		"/>
		<path class="st2" d="M119.333,60.712l0.349-0.883c4.492-2.415,10.948-2.988,10.948-2.988l2.304-0.222
			c0.424-0.213,1.288-0.616,1.878-0.699c0.81-0.115,3.555-1.384,3.555-1.384l0.344,0.11c0,0-2.076,1.373-2.717,1.388
			c-0.44,0.01-1.852,0.522-2.689,0.841l0.266,0.185c0,0-0.509,0.092-1.096,0.174l0.067,0.394l-0.608,0.373l-0.258-0.675
			c-0.278,0.025-0.526,0.036-0.699,0.021c-0.694-0.058-1.998,0.347-1.998,0.347l1.091,0.533l0.031,0.315l-1.903-0.641
			C128.197,57.9,123.868,58.219,119.333,60.712"/>
		<path class="st3" d="M111.418,55.837l-2.433-1.272h-2.862l6.173,2.364c0,0,2.085,1.129,2.867,1.096
			c0.783-0.033,1.984,0.044,3.39,0.29c1.997,0.348,5.734,2.012,5.734,2.012l-0.001-0.52c0,0-3.301-1.509-5.039-1.958
			c-1.737-0.447-3.997-0.436-3.997-0.436l-1.389-0.982c0,0-0.261,0.357,0.174,0.599c0.434,0.242,0.521,0.411,0.521,0.411
			s-0.608-0.582-1.391-0.809C112.384,56.405,111.418,55.837,111.418,55.837"/>
		<path class="st0" d="M107.717,54.727c0,0,0.79-2.403-0.215-4.446c-1.007-2.042-1.791-2.987-1.791-2.987l-0.627,1.591
			c0,0,0.65,2.015,1.011,2.927C106.453,52.721,107.717,54.727,107.717,54.727"/>
		<path class="st4" d="M105.088,48.794c0,0,1.405,4.508,2.622,5.871l0.188-1.343l-2.431-5.18"/>
		<path class="st2" d="M101.088,48.441l-0.249,0.278c0,0-2.207-3.286-2.728-3.613c-0.521-0.324-1.478-2.542-1.478-2.542
			l-0.295-1.207c0,0,2.206,3.732,2.815,4.227c0.402,0.327,1.117,1.468,1.557,2.206l0.094-1.061l0.479-0.816l-0.24,2.447"/>
		<path class="st0" d="M100.805,47.51c0,0-0.522-0.411-2.087-0.78c-1.564-0.367-4.258-0.947-4.258-0.947s3.13,2.213,3.824,2.791
			c0.695,0.579,1.999,0.872,1.999,0.872l1.304-1.275l-0.435-0.329"/>
		<path class="st4" d="M94.479,45.732c0,0,3.606,2.809,4.13,3.103c0.525,0.293,1.971,0.544,1.971,0.544l1.091-0.292"/>
		<path class="st0" d="M99.588,50.169c0,0-0.957-0.044-1.739,0.249c-0.782,0.295-1.651,0.677-1.651,0.677s0.783-0.12,1.216,0.209
			c0.435,0.332,0.782,0.403,0.782,0.403"/>
		<path class="st0" d="M103.832,46.161c0,0-0.553-0.708-0.64-1.399c-0.087-0.691-0.261-1.292-0.261-1.292s-0.521,1.152-0.608,1.851
			c-0.087,0.698,0.147,1.479,0.147,1.479l0.595,0.085l0.797-0.65"/>
		<path class="st2" d="M94.755,37.023l-0.64-0.611c0,0-1.877-9.279-1.479-12.62c0.229-1.915,0.608-4.369,1.216-5.612
			c0.058-0.12,0.138-0.29,0.231-0.501l-0.143-1.676l0.434-0.453l-0.001,1.44l-0.019,0.075c0.341-0.778,0.778-1.811,1.212-2.837
			l-0.117-1.764l0.229-0.01l0.174,1.084l-0.017,0.054c0.748-1.781,1.408-3.376,1.408-3.376l0.207,0.194c0,0-2.554,6.076-3.248,8.105
			c-0.695,2.028-0.8,2.065-1.218,5.177c-0.479,3.582,0.771,9.277,0.771,9.277"/>
		<path class="st0" d="M92.189,30.316c-1.532-2.009-4.004-4.963-4.004-4.963s0.808,1.57,1.059,2.675
			c0.251,1.108,0.601,2.378,1.537,3.323c0.937,0.941,2.116,1.594,2.595,2.239C93.858,34.235,93.724,32.328,92.189,30.316"/>
		<path class="st0" d="M93.078,29.835c0,0,0.261-3.226,0.781-4.465c0.521-1.238,1.651-3.546,1.651-3.546s0.348,2.07-0.26,3.922
			C94.642,27.596,93.078,29.835,93.078,29.835"/>
		<path class="st4" d="M95.475,21.907c0,0,0.439,1.939-0.225,3.839c-0.663,1.898-2.138,4.001-2.138,4.001"/>
		<path class="st0" d="M94.732,37.151c0,0-0.956-2.479-3.043-3.345c-2.082-0.866-4.69-1.363-4.69-1.363s2.608,2.32,3.649,3.058
			c1.042,0.737,3.996,2.261,3.996,2.261"/>
		<path class="st4" d="M86.999,32.443c0,0,3.16,2.897,4.011,3.323c0.853,0.425,3.634,1.996,3.634,1.996l0.031-0.357"/>
		<path class="st0" d="M96.895,42.726c0,0-1.652-3.838-2.783-4.312c-1.129-0.473-1.649-0.452-2.258-0.859
			c-0.61-0.409-1.39-0.896-1.39-0.896s1.39,3.156,2.432,4.066C93.94,41.637,96.895,42.726,96.895,42.726"/>
		<path class="st0" d="M96.895,42.379c0,0,0.954-2.735,0.086-4.436c-0.868-1.701-0.521-1.716-0.348-3.113
			c0.174-1.397,0.781-2.901,0.781-2.901s-2.433,2.798-2.693,4.025c-0.261,1.228-0.435,2.28,0.087,3.125
			C95.329,39.926,96.895,42.379,96.895,42.379"/>
		<path class="st0" d="M98.511,44.959c0,0,1.621-1.09,1.268-3.905c-0.356-2.814-0.586-3.79-0.664-4.581
			c-0.078-0.789-0.125-1.837-0.125-1.837s-0.871,2.107-1.085,3.135c-0.213,1.027-1,2.446-0.695,3.514
			C97.518,42.355,98.511,44.959,98.511,44.959"/>
		<path class="st0" d="M96.089,31.223c1.042-2.39,2.605-6.02,2.605-6.02s-4.17,3.046-4.52,4.45
			c-0.345,1.406-0.432,3.668-0.432,3.668S95.045,33.613,96.089,31.223"/>
		<path class="st0" d="M97.107,10.868c0,0,2.085-1.479,2.345-2.968c0.262-1.489,0.783-3.858,0.783-3.858s-0.521,0.891-1.651,2.331
			c-1.13,1.438-1.303,2.575-1.39,3.274C97.108,10.346,97.107,10.868,97.107,10.868"/>
		<path class="st0" d="M93.785,8.338c0,0,0.585,3.337,0.84,4.701c0.255,1.367-0.347,3.579-0.347,3.579s-1.565-0.619-1.38-2.675
			C93.081,11.889,93.785,8.338,93.785,8.338"/>
		<path class="st0" d="M90.256,12.813c0,0,2.085,2.517,2.433,3.72c0.347,1.2,0.434,4.586,0.434,4.586s-1.302-0.465-1.911-3.481
			C90.603,14.623,90.256,12.813,90.256,12.813"/>
		<path class="st0" d="M92.806,23.256c0,0-0.609-2.233-2.085-3.212c-1.477-0.981-2.52-1.716-2.52-1.716s1.304,1.942,1.912,2.958
			C90.721,22.304,92.806,23.256,92.806,23.256"/>
		<path class="st0" d="M90.64,22.737c0,0,0.86,0.851,1.145,2.127c0.287,1.275,1.385,5.859,1.385,5.859s-1.622-2.589-2.016-4.114
			C90.758,25.084,90.64,22.737,90.64,22.737"/>
		<path class="st0" d="M92.79,24.639c0,0,0.26-1.053,2.259-1.748c1.999-0.694,3.909-1.384,3.909-1.384s-1.303,0.925-1.91,1.559
			c-0.609,0.634-1.304,1.619-2.26,1.922C93.831,25.29,92.79,24.639,92.79,24.639"/>
		<path class="st0" d="M92.974,23.161c0,0,2.259-0.967,3.475-2.408c1.217-1.443,3.475-4.755,3.475-4.755s-0.869,0.734-2.258,1.662
			c-1.391,0.928-3.823,2.074-4.172,2.959C93.147,21.503,92.974,23.161,92.974,23.161"/>
		<path class="st0" d="M94.025,19.214c0,0,0.349-2.447,1.913-3.644c1.562-1.196,4.257-2.962,4.257-2.962s-1.303,1.62-1.913,2.776
			c-0.607,1.156-0.954,2.039-1.563,2.587C96.111,18.517,94.025,19.214,94.025,19.214"/>
		<path class="st4" d="M98.997,34.728c0,0-1.705,4.619-1.76,5.599c-0.056,0.98,1.162,4.348,1.283,4.578"/>
		<path class="st4" d="M88.185,25.353c0,0,0.762,1.492,1.119,2.941c0.358,1.448,0.467,2.102,2.747,4.163
			c1.256,0.873,1.527,1.366,1.527,1.366"/>
		<path class="st4" d="M98.694,25.203c0,0-3.405,2.648-4.042,3.67c-0.639,1.023-0.916,4.177-0.895,4.366"/>
		<path class="st4" d="M88.202,18.328c0,0,1.32,2.471,2.129,3.259c0.809,0.788,2.408,1.598,2.408,1.598"/>
		<path class="st4" d="M90.256,12.813c0,0,0.683,3.956,1.067,5.297c0.383,1.341,1.15,2.811,1.767,2.939"/>
		<path class="st4" d="M92.79,24.639c0,0,1.352,0.869,2.331,0.252c0.98-0.617,2.216-2.215,2.705-2.556
			c0.49-0.34,1.086-0.789,1.086-0.789"/>
		<path class="st4" d="M90.627,22.799c0,0,0.376,3.558,0.724,4.361c0.348,0.804,1.802,3.477,1.802,3.477"/>
		<path class="st4" d="M97.415,31.978c0,0-2.684,2.809-2.81,4.403s0.147,2.621,0.147,2.621l2.097,3.271c0,0-0.398-2.788-0.692-3.523
			c-0.294-0.734-0.692-2.076-0.357-2.999"/>
		<path class="st4" d="M90.474,36.716c0,0,1.383,3.083,2.201,3.731c0.819,0.651,3.313,2.013,3.69,2.076
			c0.378,0.063,0.441,0.042,0.441,0.042"/>
		<path class="st4" d="M99.868,16.036c0,0-1.979,3.155-3.728,5.013c-1.749,1.857-3.166,2.113-3.166,2.113"/>
		<path class="st4" d="M100.196,12.608c0,0-1.549,1.987-2.082,3.051c-0.533,1.066-1.092,2.254-1.748,2.541
			c-0.656,0.287-2.322,0.984-2.322,0.984"/>
		<path class="st4" d="M93.774,8.421c0,0-0.88,4.938-0.909,5.823c-0.03,0.883,0.543,2.077,1.415,2.334"/>
		<path class="st4" d="M100.159,4.109c0,0-0.355,2.787-0.874,4.233c-0.519,1.447-2.178,2.525-2.178,2.525"/>
		<path class="st0" d="M95.566,12.676c0,0,0.781-0.989,0.609-3.069c-0.175-2.076-0.521-3.539-0.521-3.539s-0.958,3.081-0.869,4.208
			C94.871,11.402,95.566,12.676,95.566,12.676"/>
		<path class="st4" d="M95.654,6.069c0,0-0.888,2.848-0.847,3.872c0.041,1.025,0.725,2.746,0.725,2.746"/>
		<path class="st0" d="M95.69,13.981c0,0,1.977-0.33,3.086-1.357c1.111-1.027,3.83-4.774,3.83-4.774s-2.58,0.882-3.764,1.814
			C97.658,10.596,95.69,13.981,95.69,13.981"/>
		<path class="st4" d="M102.553,7.89c0,0-2.834,3.876-3.384,4.351c-0.548,0.474-2.192,1.461-3.479,1.74"/>
		<path class="st2" d="M151.719,38.409l-0.696,1.028c0,0,0.777-3.79,0.647-4.417c-0.099-0.49,0.385-2.605,0.6-3.506
			c-0.007-0.014,0.863-5.178,0.688-8.299c-0.174-3.12-0.521-3.106-1.216-5.075c-0.695-1.968-3.38-8.045-3.38-8.045l0.339,0.007
			c0,0,0.647,1.51,1.385,3.206l0.179-0.877l0.434-0.106l-0.445,1.271c0.38,0.868,0.795,1.842,1.144,2.645l0.152-0.956l0.365,0.479
			l-0.288,0.999c0.202,0.463,0.365,0.826,0.462,1.014c0.608,1.19,0.989,3.614,1.217,5.509c0.49,4.055-0.71,9.083-0.71,9.083
			s-0.619,2.959-0.548,3.774C152.12,36.959,151.719,38.409,151.719,38.409"/>
		<path class="st0" d="M152.373,7.804c0,0-0.705,3.326-1.007,4.69c-0.304,1.364,0.234,3.522,0.234,3.522s1.605-0.69,1.486-2.713
			C152.964,11.28,152.373,7.804,152.373,7.804"/>
		<path class="st4" d="M152.4,7.919c0,0,1.08,5.061,0.863,5.964c-0.218,0.904-1.572,2.114-1.572,2.114"/>
		<path class="st0" d="M150.392,12.999c0,0-0.782-0.922-0.608-3.015c0.175-2.093,0.52-3.584,0.52-3.584s0.956,3,0.87,4.133
			C151.087,11.664,150.392,12.999,150.392,12.999"/>
		<path class="st4" d="M150.315,6.565c0,0,0.926,3.408,0.889,3.705c-0.037,0.295-0.741,2.629-0.741,2.629"/>
		<path class="st0" d="M152.698,29.047c0,0-0.26-3.204-0.781-4.398c-0.523-1.195-1.651-3.403-1.651-3.403s-0.347,2.098,0.261,3.897
			C151.134,26.941,152.698,29.047,152.698,29.047"/>
		<path class="st0" d="M153.02,22.63c0,0-2.318-0.574-3.648-1.801c-1.328-1.227-3.85-4.138-3.85-4.138s0.923,0.581,2.379,1.265
			c1.457,0.686,3.959,1.409,4.381,2.23C152.703,21.007,153.02,22.63,153.02,22.63"/>
		<path class="st4" d="M145.708,16.855c0,0,3.417,3.791,4.01,4.185c0.593,0.394,2.772,1.505,3.072,1.516
			c0.298,0.012-0.108-1.217-0.108-1.217"/>
		<path class="st0" d="M152.233,33.766c0,0,0.086-1.134,1.475-3.365c1.391-2.232,3.65-5.543,3.65-5.543s-0.695,1.68-0.87,2.817
			c-0.173,1.137-0.433,2.451-1.302,3.533C154.317,32.287,152.233,33.766,152.233,33.766"/>
		<path class="st4" d="M157.23,25.025c0,0-2.704,5.741-4.074,7.482c-1.372,1.741-1,1.555-1,1.555s2.429-1.969,3.029-2.854
			c0.601-0.886,1.267-3.219,1.377-3.924"/>
		<path class="st0" d="M155.668,12.358c0,0-2.085,2.695-2.431,3.927c-0.349,1.231-0.435,4.624-0.435,4.624s1.302-0.577,1.911-3.645
			C155.321,14.197,155.668,12.358,155.668,12.358"/>
		<path class="st0" d="M153.124,22.855c0,0,0.609-2.284,2.087-3.391c1.477-1.105,2.518-1.932,2.518-1.932s-1.302,2.054-1.91,3.122
			C155.211,21.725,153.124,22.855,153.124,22.855"/>
		<path class="st0" d="M155.922,21.661c0,0-0.912,0.87-1.265,2.144c-0.356,1.274-1.702,5.854-1.702,5.854s1.774-2.619,2.251-4.143
			C155.682,23.993,155.922,21.661,155.922,21.661"/>
		<path class="st4" d="M152.698,29.047c0,0-0.26-3.204-0.781-4.398c-0.523-1.195-1.651-3.403-1.651-3.403"/>
		<path class="st0" d="M153.181,23.997c0,0-0.261-1.031-2.259-1.555c-1.999-0.522-3.91-1.049-3.91-1.049s1.302,0.814,1.911,1.395
			c0.61,0.582,1.304,1.508,2.259,1.729C152.138,24.736,153.181,23.997,153.181,23.997"/>
		<path class="st0" d="M152.008,18.631c0,0-0.475-2.396-2.09-3.375c-1.619-0.979-4.388-2.371-4.388-2.371s1.381,1.438,2.046,2.508
			c0.664,1.07,1.057,1.905,1.689,2.367C149.899,18.221,152.008,18.631,152.008,18.631"/>
		<path class="st4" d="M153.169,22.754c0,0,1.853-1.038,2.296-1.556c0.445-0.519,2.187-3.556,2.187-3.556"/>
		<path class="st4" d="M152.802,20.908c0,0,1.34-1.265,1.748-3.228c0.408-1.963,0.963-5.185,0.963-5.185"/>
		<path class="st4" d="M147.115,21.555c0,0,1.519,0.704,2.111,1.445c0.592,0.741,1.704,1.371,2.222,1.444
			c0.517,0.075,1.555-0.444,1.555-0.444"/>
		<path class="st4" d="M145.762,13.12c0,0,1.859,2.202,2.312,3.07c0.453,0.866,1.123,1.61,2.023,1.822
			c0.901,0.213,1.656,0.433,1.656,0.433"/>
		<path class="st4" d="M155.922,21.661l-2.967,7.998c0,0,1.774-2.619,2.251-4.143C155.682,23.993,155.922,21.661,155.922,21.661"/>
		<path class="st0" d="M152.089,32.983c0,0-1.303-0.465-2.344-2.767c-1.043-2.302-2.609-5.796-2.609-5.796s4.171,2.688,4.519,4.065
			C152.002,29.859,152.089,32.983,152.089,32.983"/>
		<path class="st4" d="M147.115,24.519c0,0,2.999,6.668,3.592,7.259c0.593,0.593,1.387,1.179,1.387,1.179"/>
		<path class="st2" d="M141.945,51.894c0,0,0.788-1.283,1.433-1.786c0.484-0.379,1.591-1.875,2.109-2.591
			c0,0,0.695-1.334,1.303-1.881c0.608-0.548,2.173-3.136,2.173-3.136l0.346-0.101c0,0-0.955,2.3-1.477,2.671
			c-0.438,0.311-1.66,2.051-2.037,2.599c-0.373,0.686-0.979,1.727-1.338,1.948c-0.547,0.332-2.339,2.606-2.339,2.606"/>
		<path class="st0" d="M144.148,52.524c0,0-1.553-1.973-1.478-3.628c0.073-1.659,0.409-5.119,0.409-5.119s1.152,3.407,1.449,4.852
			C144.823,50.074,144.148,52.524,144.148,52.524"/>
		<path class="st4" d="M144.112,52.385c0,0,0.447-2.107,0.454-3.227c0.008-1.122-1.378-5.094-1.378-5.094"/>
		<path class="st0" d="M142.627,49.943l1.99-1.551c0,0,1.18,0.799,3.76,0.418c2.58-0.382,6.486-0.98,6.486-0.98
			s-4.793-1.923-6.168-1.474c-1.375,0.452-4.103,1.541-4.103,1.541l-1.891,1.386"/>
		<path class="st4" d="M154.863,47.83c0,0-4.05-1.483-5.255-1.483c-1.206,0-4.026,1.436-4.176,1.554"/>
		<path class="st0" d="M139.274,53.808c0,0,2.567,0.682,4.494-0.497c1.926-1.176,3.859-2.994,3.859-2.994s-3.408,0.745-4.617,1.155
			c-1.21,0.41-4.18,1.904-4.18,1.904"/>
		<path class="st4" d="M147.627,50.318c0,0-4.2,0.854-5.045,1.293c-0.846,0.439-3.752,1.766-3.752,1.766l0.272,0.233"/>
		<path class="st0" d="M144.878,41.026c0.31-0.838,0.26-2.01,0.26-2.01s1.303,4.636,0.957,5.692
			c-0.348,1.059-0.957,2.215-0.957,2.215l-0.434-0.069l-0.347-1.462C144.358,45.392,144.148,42.995,144.878,41.026"/>
		<path class="st4" d="M145.138,39.016c0,0,1.459,4.319,0.977,5.429c-0.482,1.112-1.075,2.445-1.075,2.445"/>
		<path class="st0" d="M147.023,45.555c0,0-1.477-1.154-0.782-3.964c0.695-2.81,1.042-3.782,1.218-4.57
			c0.174-0.79,0.346-1.84,0.346-1.84s0.609,2.147,0.696,3.185c0.087,1.04,0.694,2.49,0.261,3.553
			C148.327,42.979,147.023,45.555,147.023,45.555"/>
		<path class="st4" d="M147.791,35.279c0,0,0.777,2.705,0.851,3.742c0.076,1.036,0.334,2.334-0.148,3.408
			c-0.481,1.073-1.445,2.926-1.445,2.926"/>
		<path class="st0" d="M148.993,42.681c0,0-0.955-2.653-0.086-4.428c0.87-1.775,0.521-1.758,0.348-3.142
			c-0.173-1.384-0.782-2.835-0.782-2.835s2.433,2.59,2.693,3.795c0.26,1.204,0.434,2.24-0.087,3.131
			C150.558,40.096,148.993,42.681,148.993,42.681"/>
		<path class="st0" d="M153.764,37.194c0.108-0.062,0.215-0.129,0.325-0.212c0.607-0.461,1.39-1.015,1.39-1.015
			s-0.132,0.308-0.342,0.764c0.492-0.151,0.948-0.268,1.21-0.28c0.782-0.033,1.999,0.002,1.999,0.002s-1.739,0.249-2.347,0.969
			c-0.418,0.498-1.292,0.932-1.795,1.154c-0.378,0.676-0.789,1.313-1.16,1.665c-1.042,1.002-3.996,2.345-3.996,2.345
			s1.651-3.98,2.781-4.55C152.348,37.772,153.343,37.346,153.764,37.194"/>
		<path class="st0" d="M147.841,44.876c0,0,1.738-1.81,3.388-1.968c1.652-0.157,5.126-0.307,5.126-0.307s-3.214,1.614-4.605,2.109
			C150.36,45.203,147.841,44.876,147.841,44.876"/>
		<path class="st0" d="M151.655,36.565c0,0,0.956-2.562,3.042-3.606c2.085-1.046,4.692-1.764,4.692-1.764s-2.608,2.543-3.649,3.37
			C154.697,35.391,151.655,36.565,151.655,36.565"/>
		<path class="st4" d="M147.974,44.821c0,0,2.148,0.149,3.26,0c1.11-0.147,4.851-2.074,4.851-2.074"/>
		<path class="st4" d="M149.309,42.399c0,0,3.584-1.952,4.214-2.767c0.629-0.815,1.889-3.519,1.889-3.519"/>
		<path class="st4" d="M148.541,32.445c0,0,3.259,3.258,2.851,5.112c-0.409,1.852-2.259,4.889-2.259,4.889s0.852-2.814,1.038-4.186
			c0.185-1.371,0.63-1.408,0.074-2.555"/>
		<path class="st4" d="M155.857,34.482c1.001-0.814,3.408-3.184,3.408-3.184l-7.59,5.199
			C151.675,36.496,154.856,35.297,155.857,34.482"/>
		<path class="st0" d="M132.413,56.97c0,0,0.572-2.318,1.8-3.647c1.227-1.329,4.137-3.85,4.137-3.85s-0.582,0.921-1.265,2.378
			c-0.686,1.455-1.409,3.96-2.23,4.381C134.035,56.652,132.413,56.97,132.413,56.97"/>
		<path class="st4" d="M138.188,49.657c0,0-3.791,3.418-4.185,4.01c-0.394,0.592-1.505,2.771-1.516,3.071
			c-0.01,0.297,1.218-0.107,1.218-0.107"/>
		<path class="st0" d="M139.972,53.035l0.449-0.772c0,0-0.438-1.126,0.406-3.049c0.847-1.923,1.66-3.219,1.66-3.219
			s-0.073,3.147-0.524,4.191c-0.45,1.042-1.097,2.12-1.097,2.12l-0.814,1.297"/>
		<path class="st4" d="M142.443,46.156c0,0-0.233,3.524-0.365,3.792c-0.132,0.268-1.312,2.33-1.312,2.33l-0.246-0.085"/>
		<path class="st0" d="M136.171,56.254c0,0,2.057-1.343,3.003-2.974c0.949-1.632,2.598-5.286,2.598-5.286s-0.728,0.873-1.936,2.028
			c-1.207,1.155-3.406,2.707-3.593,3.637C136.052,54.591,136.171,56.254,136.171,56.254"/>
		<path class="st4" d="M141.722,48.039c0,0-1.402,3.451-2.801,5.584c-1.399,2.133-2.751,2.631-2.751,2.631"/>
		<path class="st0" d="M129.673,57.25c0,0-0.521-2.411,1.13-3.958c1.651-1.549,2.954-2.212,3.823-2.859
			c0.867-0.644,1.302-1.446,1.302-1.446s-1.215,4.309-2.258,5.311C132.626,55.298,129.673,57.25,129.673,57.25"/>
		<path class="st4" d="M129.673,57.25c0,0,3.588-2.172,4.255-3.358c0.667-1.185,1.851-4.815,1.851-4.815"/>
		<path class="st0" d="M136.796,54.06c0,0,2.347-0.449,3.737-0.249c1.391,0.201,4.604,1.456,4.604,1.456s-3.301,0.749-4.69,0.634
			c-1.39-0.115-4.519-0.588-4.519-0.588"/>
		<path class="st4" d="M144.966,55.262c0,0-3.221,0.814-5.296,0.482c-2.074-0.333-3.296-0.556-3.296-0.556l0.261-0.592"/>
		<path class="st0" d="M129.499,58.019c0,0,1.391,3.155,3.302,3.592c1.912,0.441,6.082,0.524,6.082,0.524s-2.694-2.666-3.824-3.051
			C133.931,58.699,129.499,58.019,129.499,58.019"/>
		<path class="st0" d="M132.106,56.779c0,0,3.649-0.939,5.214-0.398c1.564,0.541,5.127,3.603,5.127,3.603s-3.998-0.697-5.213-0.645
			c-1.218,0.052-1.74,0.075-2.434-0.417C134.105,58.428,132.106,56.779,132.106,56.779"/>
		<path class="st4" d="M132.373,56.818c0,0,1.704,2.222,3.038,2.37c1.333,0.148,5.444,0.63,5.927,0.63
			c0.48,0,1.109,0.165,1.109,0.165"/>
		<path class="st4" d="M129.499,58.019c0,0,1.096,3.058,2.837,3.392c1.741,0.334,6.445,0.741,6.445,0.741"/>
		<path class="st0" d="M111.191,54.276c0,0-3.575,1.191-5.174,0.76c-1.598-0.429-5.366-3.236-5.366-3.236s4.037,0.415,5.246,0.279
			c1.211-0.135,1.73-0.195,2.457,0.246C109.081,52.769,111.191,54.276,111.191,54.276"/>
		<path class="st4" d="M110.922,54.255c0,0-1.856-2.098-3.196-2.154c-1.34-0.054-5.475-0.248-5.955-0.214
			c-0.481,0.034-1.12-0.087-1.12-0.087"/>
		<path class="st0" d="M106.996,55.072c0,0-0.608-1.016-2.955-0.917c-2.344,0.101-5.647,0.851-5.647,0.851s3.128,0.994,4.953,1.004
			C105.172,56.019,106.996,55.072,106.996,55.072"/>
		<path class="st4" d="M106.996,55.072c0,0-2.116,0.976-3.564,0.955c-1.446-0.021-4.969-1.006-4.969-1.006"/>
		<path class="st0" d="M116.081,57.519l-0.348-0.765c0,0-2.085,0.263-2.345-2.505c-0.261-2.77-0.956-5.521-0.956-5.521
			s2.431,3.46,2.866,4.31c0.435,0.849,0.697,1.272,0.697,2.054c0,0.783,0.434,2.502,0.434,2.502"/>
		<path class="st4" d="M116.081,57.519l-0.348-0.765c0,0-2.085,0.263-2.345-2.505c-0.261-2.77-0.956-5.521-0.956-5.521l3.997,8.866"
			/>
		<path class="st0" d="M113.599,57.057c0,0-3.214-2.121-3.387-3.157c-0.175-1.035-1.391-4.893-1.391-4.893s4.778,1.794,4.605,6.406
			C113.39,56.376,113.599,57.057,113.599,57.057"/>
		<path class="st4" d="M113.599,57.057c0,0-3.214-2.121-3.387-3.157c-0.175-1.035-1.391-4.893-1.391-4.893"/>
		<path class="st0" d="M114.368,57.592c0,0-2.957,0.475-4.26,1.139c-1.302,0.664-4.169,2.785-4.169,2.785s3.214,0.297,4.606-0.286
			C111.936,60.651,114.368,57.592,114.368,57.592"/>
		<path class="st0" d="M103.086,60.104l1.302-1.186c0,0,0.437-2.45,2.695-2.982c3.523-0.828,5.386,0.378,5.386,0.378
			s-1.997,1.39-3.474,2.06c-1.476,0.671-3.911,1.472-3.911,1.472l-0.781,0.117"/>
		<path class="st4" d="M114.368,57.592c0,0-2.914,3.337-3.822,3.638c-0.909,0.302-4.549,0.302-4.549,0.302"/>
		<path class="st4" d="M112.384,56.264c0,0-2.698,1.883-4.608,2.596c-1.909,0.713-4.69,1.244-4.69,1.244"/>
		<path class="st0" d="M101.231,41.171c-0.24-0.846-0.26-1.987-0.26-1.987s-1.303,4.747-0.956,5.775
			c0.348,1.027,0.955,2.13,0.955,2.13l0.783-1.597C101.752,45.492,102.2,44.58,101.231,41.171"/>
		<path class="st4" d="M100.971,39.184c0,0-0.972,4.091-1.015,4.9c-0.043,0.809,1.043,3.068,1.043,3.068"/>
		<path class="st0" d="M98.099,44.885c0,0-1.737-1.663-3.389-1.68c-1.65-0.016-5.127,0.132-5.127,0.132s3.215,1.339,4.606,1.715
			C95.581,45.426,98.099,44.885,98.099,44.885"/>
		<path class="st4" d="M98.099,44.885l-8.644-1.56c0,0,4.28,1.704,5.069,1.789C95.311,45.199,97.947,44.977,98.099,44.885"/>
		<path class="st0" d="M138.033,12.11l0.533,0.56l-0.629,0.719c0,0,0.6,0.625,1.034,0.521c0.434-0.106,11.034-9.596,11.034-9.596
			l-9.991,10.072c0,0-0.524,0.517-0.869,0.558c-0.43,0.051-1.068-0.236-1.068-0.236s-0.664-0.459-0.884-0.68
			c-0.25,0.267-4.217,4.569-4.217,4.569v0.521l-0.349,0.537l-0.521-0.152l-21.112,21.582l-2.898,4.154l-1.711-1.065
			c0,0,1.307-1.208,1.483-1.998c0.173-0.789,0.086-1.307,0.086-1.307l1.274-1.202"/>
		<path class="st0" d="M108.111,45.724c0,0,0.622,0.325,1.056-0.043c0.435-0.365,0.783-1.163,0.783-1.163l-0.58-1.185l-0.377,0.619
			c0,0,0.427,0.091,0.261,0.51c-0.347,0.882-0.956,0.474-0.956,0.474l-0.431,0.674"/>
		<path class="st2" d="M106.388,44.15l-1.999,1.909l-0.868-0.048l-5.56,5.972c0,0-0.956,0.562-0.87,0.993
			c0.088,0.43,0.695,1.011,0.695,1.011s2.085,2.432,2.693,2.318c0.607-0.114,7.647-11.102,7.647-11.102"/>
		<path class="st5" d="M106.592,44.257l-1.982,2.05l-1.581,0.772l-4.969,5.824c0,0,0.51,1.576,0.768,2.14c0,0-2.03-2.039-2.01-2.386
			c0.019-0.348,0.892-1.07,0.892-1.07l5.53-5.784l1.097,0.169l2.027-1.846"/>
		<path class="st1" d="M138.095,12.351l0.214,0.214c0,0-7.987,8.037-7.937,8.054c0.05,0.016-0.198-0.663-0.198-0.663"/>
		<polyline class="st2" points="109.53,40.511 111.963,38.15 113.321,38.688 110.988,41.084 110.672,41.542 		"/>
		<polyline class="st1" points="137.937,13.388 137.206,14.039 137.671,14.413 138.324,13.726 		"/>
		<path class="st0" d="M133.57,31.908c-0.133,0.065-3.196,0.737-11.779,8.833c-5.375,5.071-8.856,9.952-9.103,10.385l0.217,0.671
			l0.32-0.36c0.253-0.396,4.479-4.772,9.915-9.901c8.484-8.005,15.676-11.261,15.707-11.277"/>
		<path class="st1" d="M112.619,51.154c0,0,6.422-8.553,11.674-12.775c5.252-4.223,9.12-7.027,14.337-8.056
			c0,0-12.008,3.27-25.823,20.976"/>
		<path class="st0" d="M112.796,52.037c0-0.247-0.262-0.447-0.585-0.447c-0.324,0-0.586,0.2-0.586,0.447
			c0,0.047,0.012,0.092,0.031,0.134c-0.305,0.016-0.548,0.207-0.548,0.443c0,0.048,0.012,0.093,0.03,0.135
			c-0.305,0.015-0.548,0.206-0.548,0.444c0,0.047,0.013,0.092,0.031,0.135c-0.306,0.015-0.548,0.207-0.548,0.444
			c0,0.046,0.013,0.092,0.031,0.134c-0.306,0.015-0.547,0.207-0.547,0.443c0,0.048,0.012,0.093,0.03,0.136
			c-0.306,0.015-0.548,0.207-0.548,0.442c0,0.048,0.011,0.092,0.029,0.135c-0.306,0.016-0.548,0.207-0.548,0.443
			c0,0.047,0.012,0.092,0.031,0.135c-0.306,0.016-0.548,0.207-0.548,0.444c0,0.246,0.262,0.446,0.586,0.446
			c0.324,0,0.585-0.2,0.585-0.446c0-0.047-0.012-0.092-0.03-0.136c0.306-0.014,0.549-0.206,0.549-0.443
			c0-0.047-0.012-0.092-0.031-0.135c0.306-0.015,0.548-0.208,0.548-0.443c0-0.047-0.012-0.091-0.03-0.136
			c0.306-0.015,0.547-0.205,0.547-0.442c0-0.047-0.012-0.092-0.029-0.135c0.305-0.015,0.548-0.206,0.548-0.442
			c0-0.049-0.012-0.092-0.031-0.135c0.306-0.016,0.548-0.207,0.548-0.443c0-0.049-0.011-0.092-0.031-0.135
			c0.306-0.015,0.549-0.207,0.549-0.443c0-0.047-0.013-0.092-0.031-0.134C112.554,52.465,112.796,52.273,112.796,52.037"/>
		<path class="st0" d="M113.945,51.358c-0.288,0-0.519,0.234-0.519,0.52c0,0.014,0.003,0.027,0.004,0.039
			c-0.027,0.005-0.054,0.007-0.083-0.001c-0.074-0.03-0.264-0.218-0.404-0.356c-0.461-0.453-1.094-1.075-1.853-0.966
			c-1.007,0.144-1.658,0.402-2.414,1.41c-0.467,0.621-0.898,1.603-0.713,2.491c0.113,0.543,0.449,0.987,0.967,1.282l0.312-0.547
			c-0.363-0.207-0.585-0.496-0.661-0.864c-0.143-0.683,0.235-1.495,0.599-1.983c0.637-0.847,1.111-1.038,2.001-1.165
			c0.449-0.064,0.953,0.431,1.321,0.793c0.269,0.264,0.466,0.457,0.681,0.513c0.281,0.076,0.531-0.006,0.721-0.13
			c0.015,0.002,0.028,0.006,0.043,0.006c0.288,0,0.743-0.234,0.743-0.521C114.689,51.592,114.233,51.358,113.945,51.358"/>
		<path class="st0" d="M114.196,51.542c-0.287,0-0.52,0.234-0.52,0.519c0,0.014,0.003,0.027,0.003,0.04
			c-0.027,0.005-0.054,0.006-0.083-0.002c-0.073-0.031-0.264-0.218-0.404-0.355c-0.461-0.453-1.094-1.075-1.853-0.967
			c-1.008,0.145-1.658,0.402-2.414,1.411c-0.466,0.621-0.899,1.602-0.714,2.49c0.114,0.544,0.447,0.987,0.968,1.283l0.311-0.548
			c-0.363-0.206-0.586-0.496-0.661-0.863c-0.142-0.684,0.236-1.496,0.601-1.984c0.636-0.849,1.11-1.038,1.999-1.165
			c0.45-0.064,0.954,0.431,1.321,0.792c0.271,0.266,0.466,0.457,0.681,0.515c0.282,0.075,0.531-0.007,0.721-0.13
			c0.015,0.001,0.029,0.004,0.044,0.004c0.287,0,0.519-0.233,0.519-0.521C114.715,51.776,114.483,51.542,114.196,51.542"/>
		<path class="st0" d="M113.111,52.037c0-0.247-0.262-0.447-0.586-0.447c-0.322,0-0.584,0.2-0.584,0.447
			c0,0.047,0.012,0.092,0.029,0.134c-0.305,0.016-0.547,0.207-0.547,0.443c0,0.048,0.012,0.093,0.03,0.135
			c-0.305,0.015-0.548,0.206-0.548,0.444c0,0.047,0.013,0.092,0.03,0.135c-0.305,0.015-0.548,0.207-0.548,0.444
			c0,0.046,0.013,0.092,0.032,0.134c-0.307,0.015-0.548,0.207-0.548,0.443c0,0.048,0.011,0.093,0.03,0.136
			c-0.305,0.015-0.547,0.207-0.547,0.442c0,0.048,0.012,0.092,0.029,0.135c-0.305,0.016-0.548,0.207-0.548,0.443
			c0,0.047,0.013,0.092,0.03,0.135c-0.305,0.016-0.547,0.207-0.547,0.444c0,0.246,0.261,0.446,0.585,0.446
			c0.324,0,0.586-0.2,0.586-0.446c0-0.047-0.013-0.092-0.03-0.136c0.305-0.014,0.548-0.206,0.548-0.443
			c0-0.047-0.013-0.092-0.031-0.135c0.306-0.015,0.547-0.208,0.547-0.443c0-0.047-0.011-0.091-0.029-0.136
			c0.305-0.015,0.548-0.205,0.548-0.442c0-0.047-0.013-0.092-0.03-0.135c0.305-0.015,0.547-0.206,0.547-0.442
			c0-0.049-0.013-0.092-0.031-0.135c0.305-0.016,0.548-0.207,0.548-0.443c0-0.049-0.013-0.092-0.031-0.135
			c0.305-0.015,0.55-0.207,0.55-0.443c0-0.047-0.014-0.092-0.032-0.134C112.869,52.465,113.111,52.273,113.111,52.037"/>
		<path class="st5" d="M112.954,52.037c-0.046-0.526-0.586-0.447-0.586-0.447s0.333,0.209,0.271,0.447
			c-0.073,0.276-0.353,0.292-0.353,0.292s0.033,0.196-0.127,0.404c-0.132,0.17-0.39,0.174-0.39,0.174s-0.006,0.224-0.134,0.417
			c-0.106,0.158-0.384,0.161-0.384,0.161s0.015,0.246-0.169,0.43c-0.144,0.145-0.349,0.148-0.349,0.148s0.025,0.251-0.137,0.431
			c-0.118,0.131-0.38,0.147-0.38,0.147s0.02,0.266-0.144,0.43c-0.131,0.132-0.374,0.149-0.374,0.149s0.058,0.219-0.165,0.429
			c-0.035,0.033-0.353,0.149-0.353,0.149s0.076,0.188-0.081,0.429c-0.144,0.224-0.353,0.302-0.353,0.302s0.55-0.013,0.585-0.446
			c0.004-0.047-0.012-0.092-0.03-0.136c0.305-0.014,0.548-0.206,0.548-0.443c0-0.047-0.013-0.092-0.03-0.135
			c0.305-0.015,0.547-0.208,0.547-0.443c0-0.047-0.011-0.091-0.03-0.136c0.305-0.015,0.548-0.205,0.548-0.442
			c0-0.047-0.012-0.092-0.03-0.135c0.305-0.015,0.548-0.206,0.548-0.442c0-0.049-0.011-0.092-0.03-0.135
			c0.305-0.016,0.548-0.207,0.548-0.443c0-0.049-0.013-0.092-0.03-0.135c0.305-0.015,0.547-0.207,0.547-0.443
			c0-0.047-0.013-0.092-0.031-0.134C112.711,52.465,112.975,52.272,112.954,52.037"/>
		<g>
			<defs>
				<path id="SVGID_47_" d="M115.846,32.321c0,0-5.306-0.852-5.306,3.063c0,2.961,3.585,2.961,3.585,2.961s1.624-2.123,1.776-2.97
					C116.106,34.229,115.846,32.321,115.846,32.321"/>
			</defs>
			<clipPath id="SVGID_1_">
				<use xlink:href="#SVGID_47_"  style="overflow:visible;"/>
			</clipPath>
			<g class="st6">
				<defs>
					<rect id="SVGID_49_" x="110.439" y="36.691" width="5.643" height="1.757"/>
				</defs>
				<clipPath id="SVGID_2_">
					<use xlink:href="#SVGID_49_"  style="overflow:visible;"/>
				</clipPath>
				<rect x="110.439" y="36.69" class="st7" width="5.643" height="0.196"/>
				<rect x="110.439" y="36.886" class="st7" width="5.643" height="0.196"/>
				<rect x="110.439" y="37.081" class="st7" width="5.643" height="0.195"/>
				<rect x="110.439" y="37.277" class="st7" width="5.643" height="0.195"/>
				<rect x="110.439" y="37.472" class="st7" width="5.643" height="0.195"/>
				<rect x="110.439" y="37.667" class="st7" width="5.643" height="0.194"/>
				<rect x="110.439" y="37.861" class="st7" width="5.643" height="0.196"/>
				<rect x="110.439" y="38.057" class="st7" width="5.643" height="0.195"/>
				<rect x="110.439" y="38.252" class="st7" width="5.643" height="0.195"/>
			</g>
			<g class="st6">
				<defs>
					<rect id="SVGID_51_" x="110.439" y="35.034" width="5.643" height="1.861"/>
				</defs>
				<clipPath id="SVGID_3_">
					<use xlink:href="#SVGID_51_"  style="overflow:visible;"/>
				</clipPath>
				<rect x="110.439" y="35.034" class="st8" width="5.643" height="0.207"/>
				<rect x="110.439" y="35.24" class="st8" width="5.643" height="0.207"/>
				<rect x="110.439" y="35.447" class="st8" width="5.643" height="0.207"/>
				<rect x="110.439" y="35.654" class="st8" width="5.643" height="0.207"/>
				<rect x="110.439" y="35.861" class="st8" width="5.643" height="0.206"/>
				<rect x="110.439" y="36.067" class="st8" width="5.643" height="0.207"/>
				<rect x="110.439" y="36.275" class="st8" width="5.643" height="0.207"/>
				<rect x="110.439" y="36.481" class="st8" width="5.643" height="0.206"/>
				<rect x="110.439" y="36.688" class="st8" width="5.643" height="0.206"/>
			</g>
			<g class="st6">
				<defs>
					<rect id="SVGID_53_" x="110.439" y="33.929" width="5.643" height="1.309"/>
				</defs>
				<clipPath id="SVGID_4_">
					<use xlink:href="#SVGID_53_"  style="overflow:visible;"/>
				</clipPath>
				<rect x="110.439" y="33.929" class="st9" width="5.643" height="0.145"/>
				<rect x="110.439" y="34.075" class="st9" width="5.643" height="0.145"/>
				<rect x="110.439" y="34.22" class="st9" width="5.643" height="0.145"/>
				<rect x="110.439" y="34.365" class="st9" width="5.643" height="0.145"/>
				<rect x="110.439" y="34.51" class="st9" width="5.643" height="0.146"/>
				<rect x="110.439" y="34.656" class="st9" width="5.643" height="0.145"/>
				<rect x="110.439" y="34.801" class="st9" width="5.643" height="0.147"/>
				<rect x="110.439" y="34.947" class="st9" width="5.643" height="0.144"/>
				<rect x="110.439" y="35.091" class="st9" width="5.643" height="0.146"/>
			</g>
			<g class="st6">
				<defs>
					<rect id="SVGID_55_" x="110.439" y="32.142" width="5.643" height="1.991"/>
				</defs>
				<clipPath id="SVGID_5_">
					<use xlink:href="#SVGID_55_"  style="overflow:visible;"/>
				</clipPath>
				<rect x="110.439" y="32.141" class="st10" width="5.643" height="0.222"/>
				<rect x="110.439" y="32.362" class="st10" width="5.643" height="0.222"/>
				<rect x="110.439" y="32.584" class="st10" width="5.643" height="0.221"/>
				<rect x="110.439" y="32.805" class="st10" width="5.643" height="0.221"/>
				<rect x="110.439" y="33.026" class="st10" width="5.643" height="0.221"/>
				<rect x="110.439" y="33.247" class="st10" width="5.643" height="0.221"/>
				<rect x="110.439" y="33.469" class="st10" width="5.643" height="0.221"/>
				<rect x="110.439" y="33.69" class="st10" width="5.643" height="0.221"/>
				<rect x="110.439" y="33.911" class="st10" width="5.643" height="0.221"/>
			</g>
		</g>
		<g>
			<defs>
				<path id="SVGID_57_" d="M115.846,32.321c0,0-5.306-0.852-5.306,3.063c0,2.961,3.585,2.961,3.585,2.961s1.624-2.123,1.776-2.97
					C116.106,34.229,115.846,32.321,115.846,32.321"/>
			</defs>
			<clipPath id="SVGID_6_">
				<use xlink:href="#SVGID_57_"  style="overflow:visible;"/>
			</clipPath>
			<polyline class="st11" points="110.314,32.472 111.069,32.491 110.943,38.593 110.189,38.573 			"/>
		</g>
		<g>
			<defs>
				<path id="SVGID_59_" d="M112.425,37.49c0.975,0,1.765-1.005,1.765-2.245c0-1.24-0.791-2.245-1.765-2.245
					c-0.975,0-1.765,1.005-1.765,2.245C110.66,36.485,111.45,37.49,112.425,37.49"/>
			</defs>
			<clipPath id="SVGID_7_">
				<use xlink:href="#SVGID_59_"  style="overflow:visible;"/>
			</clipPath>
			<g class="st12">
				<defs>
					<polyline id="SVGID_61_" points="113.957,37.878 109.505,37.768 109.636,33.27 114.088,33.38 					"/>
				</defs>
				<clipPath id="SVGID_8_">
					<use xlink:href="#SVGID_61_"  style="overflow:visible;"/>
				</clipPath>
				<polyline class="st13" points="113.954,37.925 113.457,37.909 113.614,33.365 114.112,33.382 				"/>
				<polyline class="st13" points="113.457,37.909 112.959,37.89 113.118,33.348 113.614,33.365 				"/>
				<polyline class="st13" points="112.959,37.89 112.462,37.874 112.62,33.331 113.118,33.346 				"/>
				<polyline class="st13" points="112.462,37.873 111.964,37.856 112.123,33.313 112.62,33.331 				"/>
				<polyline class="st13" points="111.964,37.856 111.467,37.838 111.626,33.296 112.123,33.313 				"/>
				<polyline class="st13" points="111.467,37.838 110.969,37.821 111.128,33.278 111.626,33.296 				"/>
				<polyline class="st13" points="110.969,37.821 110.472,37.804 110.631,33.261 111.128,33.278 				"/>
			</g>
		</g>
		<g>
			<defs>
				<path id="SVGID_63_" d="M112.729,16.765c0.685,2.355,1.958,1.962,1.958,1.962c1.665,0.687,15.477,0.196,15.477,0.196
					s2.547,0.007,2.547-2.944c0-2.748-3.135-2.943-3.135-2.943H114.1C114.1,13.036,112.043,14.409,112.729,16.765"/>
			</defs>
			<clipPath id="SVGID_9_">
				<use xlink:href="#SVGID_63_"  style="overflow:visible;"/>
			</clipPath>
			<g class="st14">
				<defs>
					<polyline id="SVGID_65_" points="132.776,18.128 132.754,19.419 112.43,19.064 112.452,17.773 					"/>
				</defs>
				<clipPath id="SVGID_10_">
					<use xlink:href="#SVGID_65_"  style="overflow:visible;"/>
				</clipPath>
				<polyline class="st15" points="132.776,18.129 132.773,18.29 112.45,17.935 112.452,17.774 				"/>
				<polyline class="st15" points="132.773,18.29 132.77,18.452 112.446,18.096 112.45,17.935 				"/>
				<polyline class="st15" points="132.77,18.452 132.768,18.613 112.443,18.257 112.446,18.096 				"/>
				<polyline class="st15" points="132.768,18.613 132.764,18.774 112.441,18.419 112.444,18.258 				"/>
				<polyline class="st15" points="132.764,18.774 132.763,18.935 112.438,18.581 112.441,18.419 				"/>
				<polyline class="st15" points="132.763,18.935 132.76,19.097 112.435,18.742 112.438,18.58 				"/>
				<polyline class="st15" points="132.76,19.096 132.757,19.258 112.432,18.903 112.435,18.742 				"/>
				<polyline class="st15" points="132.756,19.258 132.753,19.419 112.43,19.064 112.432,18.903 				"/>
			</g>
			<g class="st14">
				<defs>
					<polyline id="SVGID_67_" points="132.831,15.017 132.773,18.332 112.449,17.977 112.507,14.662 					"/>
				</defs>
				<clipPath id="SVGID_11_">
					<use xlink:href="#SVGID_67_"  style="overflow:visible;"/>
				</clipPath>
				<polyline class="st16" points="132.831,15.017 132.826,15.294 112.502,14.939 112.507,14.662 				"/>
				<polyline class="st16" points="132.826,15.294 132.82,15.57 112.497,15.214 112.502,14.939 				"/>
				<polyline class="st16" points="132.821,15.57 132.817,15.846 112.491,15.491 112.497,15.214 				"/>
				<polyline class="st16" points="132.817,15.846 132.811,16.122 112.487,15.768 112.492,15.491 				"/>
				<polyline class="st16" points="132.811,16.122 132.806,16.399 112.483,16.044 112.487,15.768 				"/>
				<polyline class="st16" points="132.806,16.399 132.802,16.675 112.478,16.319 112.483,16.044 				"/>
				<polyline class="st16" points="132.802,16.675 132.797,16.951 112.473,16.596 112.478,16.319 				"/>
				<polyline class="st16" points="132.797,16.951 132.791,17.227 112.468,16.872 112.473,16.596 				"/>
				<polyline class="st16" points="132.791,17.227 132.787,17.503 112.464,17.148 112.468,16.872 				"/>
				<polyline class="st16" points="132.787,17.503 132.782,17.779 112.457,17.425 112.463,17.148 				"/>
				<polyline class="st16" points="132.782,17.78 132.777,18.056 112.453,17.701 112.458,17.425 				"/>
				<polyline class="st16" points="132.777,18.056 132.772,18.332 112.448,17.977 112.453,17.701 				"/>
			</g>
			<g class="st14">
				<defs>
					<polyline id="SVGID_69_" points="132.856,13.497 132.827,15.221 112.503,14.865 112.533,13.143 					"/>
				</defs>
				<clipPath id="SVGID_12_">
					<use xlink:href="#SVGID_69_"  style="overflow:visible;"/>
				</clipPath>
				<polyline class="st17" points="132.856,13.498 132.855,13.642 112.531,13.287 112.533,13.144 				"/>
				<polyline class="st17" points="132.855,13.642 132.852,13.786 112.528,13.43 112.531,13.287 				"/>
				<polyline class="st17" points="132.852,13.786 132.85,13.929 112.526,13.574 112.528,13.43 				"/>
				<polyline class="st17" points="132.85,13.929 132.847,14.073 112.523,13.717 112.526,13.574 				"/>
				<polyline class="st17" points="132.847,14.073 132.845,14.216 112.521,13.862 112.523,13.717 				"/>
				<polyline class="st17" points="132.845,14.216 132.842,14.359 112.518,14.004 112.521,13.862 				"/>
				<polyline class="st17" points="132.842,14.359 132.839,14.503 112.516,14.148 112.518,14.004 				"/>
				<polyline class="st17" points="132.839,14.503 132.837,14.647 112.513,14.292 112.516,14.148 				"/>
				<polyline class="st17" points="132.837,14.647 132.834,14.79 112.51,14.435 112.513,14.292 				"/>
				<polyline class="st17" points="132.834,14.79 132.832,14.935 112.508,14.58 112.51,14.435 				"/>
				<polyline class="st17" points="132.832,14.935 132.829,15.078 112.505,14.723 112.508,14.579 				"/>
				<polyline class="st17" points="132.829,15.078 132.827,15.221 112.503,14.866 112.505,14.723 				"/>
			</g>
			<g class="st14">
				<defs>
					<polyline id="SVGID_71_" points="132.866,12.991 132.854,13.702 112.53,13.347 112.542,12.637 					"/>
				</defs>
				<clipPath id="SVGID_13_">
					<use xlink:href="#SVGID_71_"  style="overflow:visible;"/>
				</clipPath>
				<polyline class="st18" points="132.866,12.992 132.865,13.071 112.54,12.715 112.541,12.637 				"/>
				<polyline class="st18" points="132.865,13.071 132.864,13.15 112.539,12.795 112.54,12.715 				"/>
				<polyline class="st18" points="132.863,13.15 132.861,13.228 112.537,12.873 112.539,12.795 				"/>
				<polyline class="st18" points="132.861,13.228 132.86,13.308 112.537,12.953 112.537,12.873 				"/>
				<polyline class="st18" points="132.86,13.307 132.859,13.386 112.535,13.031 112.537,12.953 				"/>
				<polyline class="st18" points="132.859,13.386 132.858,13.465 112.533,13.11 112.535,13.032 				"/>
				<polyline class="st18" points="132.858,13.465 132.856,13.544 112.532,13.19 112.533,13.11 				"/>
				<polyline class="st18" points="132.856,13.544 132.855,13.623 112.531,13.268 112.532,13.19 				"/>
				<polyline class="st18" points="132.855,13.624 132.853,13.702 112.529,13.347 112.531,13.268 				"/>
			</g>
		</g>
		<g>
			<defs>
				<path id="SVGID_73_" d="M132.712,25.204c-1.764-2.159-2.547-6.281-2.547-6.281s-13.811,0.491-15.477-0.196
					c0,0-1.273,0.393-1.958-1.962c-0.686-2.355,1.371-3.728,1.371-3.728s-2.35,0.686-2.546,3.14
					c-0.306,3.843,2.546,9.027,3.526,11.58c0.978,2.551,0.684,4.436,0.684,4.436s0.02,1.835-0.391,3.023
					c-0.945,2.734-1.493,2.676-2.035,3.164l18.785-0.025c0,0,2.742-1.863,2.742-5.3C134.866,29.884,134.475,27.363,132.712,25.204"
					/>
			</defs>
			<clipPath id="SVGID_14_">
				<use xlink:href="#SVGID_73_"  style="overflow:visible;"/>
			</clipPath>
			<g class="st19">
				<defs>
					<rect id="SVGID_75_" x="111.429" y="34.512" width="23.539" height="3.969"/>
				</defs>
				<clipPath id="SVGID_15_">
					<use xlink:href="#SVGID_75_"  style="overflow:visible;"/>
				</clipPath>
				<rect x="111.429" y="34.512" class="st20" width="23.539" height="0.44"/>
				<rect x="111.429" y="34.953" class="st20" width="23.539" height="0.441"/>
				<rect x="111.429" y="35.394" class="st20" width="23.539" height="0.441"/>
				<rect x="111.429" y="35.836" class="st20" width="23.539" height="0.441"/>
				<rect x="111.429" y="36.276" class="st20" width="23.539" height="0.44"/>
				<rect x="111.429" y="36.717" class="st20" width="23.539" height="0.442"/>
				<rect x="111.429" y="37.159" class="st20" width="23.539" height="0.44"/>
				<rect x="111.429" y="37.599" class="st20" width="23.539" height="0.441"/>
				<rect x="111.429" y="38.04" class="st20" width="23.539" height="0.441"/>
			</g>
			<g class="st19">
				<defs>
					<rect id="SVGID_77_" x="111.429" y="30.94" width="23.539" height="3.776"/>
				</defs>
				<clipPath id="SVGID_16_">
					<use xlink:href="#SVGID_77_"  style="overflow:visible;"/>
				</clipPath>
				<rect x="111.429" y="30.94" class="st21" width="23.539" height="0.419"/>
				<rect x="111.429" y="31.359" class="st21" width="23.539" height="0.42"/>
				<rect x="111.429" y="31.779" class="st21" width="23.539" height="0.42"/>
				<rect x="111.429" y="32.199" class="st21" width="23.539" height="0.42"/>
				<rect x="111.429" y="32.618" class="st21" width="23.539" height="0.419"/>
				<rect x="111.429" y="33.037" class="st21" width="23.539" height="0.42"/>
				<rect x="111.429" y="33.457" class="st21" width="23.539" height="0.42"/>
				<rect x="111.429" y="33.877" class="st21" width="23.539" height="0.42"/>
				<rect x="111.429" y="34.297" class="st21" width="23.539" height="0.419"/>
			</g>
			<g class="st19">
				<defs>
					<rect id="SVGID_79_" x="111.429" y="26.51" width="23.539" height="4.634"/>
				</defs>
				<clipPath id="SVGID_17_">
					<use xlink:href="#SVGID_79_"  style="overflow:visible;"/>
				</clipPath>
				<rect x="111.429" y="26.51" class="st22" width="23.539" height="0.927"/>
				<rect x="111.429" y="27.436" class="st22" width="23.539" height="0.927"/>
				<rect x="111.429" y="28.363" class="st22" width="23.539" height="0.927"/>
				<rect x="111.429" y="29.29" class="st22" width="23.539" height="0.926"/>
				<rect x="111.429" y="30.217" class="st22" width="23.539" height="0.927"/>
			</g>
			<g class="st19">
				<defs>
					<rect id="SVGID_81_" x="111.429" y="23.509" width="23.539" height="3.205"/>
				</defs>
				<clipPath id="SVGID_18_">
					<use xlink:href="#SVGID_81_"  style="overflow:visible;"/>
				</clipPath>
				<rect x="111.429" y="23.509" class="st23" width="23.539" height="0.641"/>
				<rect x="111.429" y="24.149" class="st23" width="23.539" height="0.641"/>
				<rect x="111.429" y="24.791" class="st23" width="23.539" height="0.641"/>
				<rect x="111.429" y="25.432" class="st23" width="23.539" height="0.641"/>
				<rect x="111.429" y="26.072" class="st23" width="23.539" height="0.641"/>
			</g>
			<g class="st19">
				<defs>
					<rect id="SVGID_83_" x="111.429" y="18.65" width="23.539" height="5.062"/>
				</defs>
				<clipPath id="SVGID_19_">
					<use xlink:href="#SVGID_83_"  style="overflow:visible;"/>
				</clipPath>
				<rect x="111.429" y="18.65" class="st24" width="23.539" height="0.562"/>
				<rect x="111.429" y="19.212" class="st24" width="23.539" height="0.562"/>
				<rect x="111.429" y="19.774" class="st24" width="23.539" height="0.563"/>
				<rect x="111.429" y="20.337" class="st24" width="23.539" height="0.563"/>
				<rect x="111.429" y="20.9" class="st24" width="23.539" height="0.562"/>
				<rect x="111.429" y="21.463" class="st24" width="23.539" height="0.562"/>
				<rect x="111.429" y="22.025" class="st24" width="23.539" height="0.562"/>
				<rect x="111.429" y="22.587" class="st24" width="23.539" height="0.563"/>
				<rect x="111.429" y="23.149" class="st24" width="23.539" height="0.563"/>
			</g>
			<g class="st19">
				<defs>
					<rect id="SVGID_85_" x="111.429" y="12.934" width="23.539" height="5.92"/>
				</defs>
				<clipPath id="SVGID_20_">
					<use xlink:href="#SVGID_85_"  style="overflow:visible;"/>
				</clipPath>
				<rect x="111.429" y="12.934" class="st25" width="23.539" height="0.237"/>
				<rect x="111.429" y="13.171" class="st26" width="23.539" height="0.237"/>
				<rect x="111.429" y="13.408" class="st26" width="23.539" height="0.237"/>
				<rect x="111.429" y="13.644" class="st26" width="23.539" height="0.237"/>
				<rect x="111.429" y="13.881" class="st26" width="23.539" height="0.238"/>
				<rect x="111.429" y="14.118" class="st26" width="23.539" height="0.237"/>
				<rect x="111.429" y="14.355" class="st26" width="23.539" height="0.237"/>
				<rect x="111.429" y="14.592" class="st26" width="23.539" height="0.236"/>
				<rect x="111.429" y="14.828" class="st26" width="23.539" height="0.237"/>
				<rect x="111.429" y="15.065" class="st26" width="23.539" height="0.238"/>
				<rect x="111.429" y="15.302" class="st26" width="23.539" height="0.236"/>
				<rect x="111.429" y="15.539" class="st26" width="23.539" height="0.236"/>
				<rect x="111.429" y="15.776" class="st26" width="23.539" height="0.236"/>
				<rect x="111.429" y="16.012" class="st26" width="23.539" height="0.237"/>
				<rect x="111.429" y="16.249" class="st26" width="23.539" height="0.236"/>
				<rect x="111.429" y="16.486" class="st26" width="23.539" height="0.237"/>
				<rect x="111.429" y="16.723" class="st26" width="23.539" height="0.236"/>
				<rect x="111.429" y="16.959" class="st26" width="23.539" height="0.237"/>
				<rect x="111.429" y="17.196" class="st26" width="23.539" height="0.238"/>
				<rect x="111.429" y="17.434" class="st26" width="23.539" height="0.236"/>
				<rect x="111.429" y="17.67" class="st26" width="23.539" height="0.236"/>
				<rect x="111.429" y="17.907" class="st26" width="23.539" height="0.237"/>
				<rect x="111.429" y="18.144" class="st26" width="23.539" height="0.236"/>
				<rect x="111.429" y="18.38" class="st26" width="23.539" height="0.237"/>
				<rect x="111.429" y="18.617" class="st26" width="23.539" height="0.236"/>
			</g>
		</g>
		<g>
			<defs>
				<path id="SVGID_87_" d="M114.189,18.518c0.899,0,1.626-1.174,1.626-2.625c0-1.45-0.727-2.625-1.626-2.625
					c-0.897,0-1.625,1.175-1.625,2.625C112.564,17.344,113.292,18.518,114.189,18.518"/>
			</defs>
			<clipPath id="SVGID_21_">
				<use xlink:href="#SVGID_87_"  style="overflow:visible;"/>
			</clipPath>
			<g class="st27">
				<defs>
					<rect id="SVGID_89_" x="112.31" y="13.515" width="3.256" height="5.521"/>
				</defs>
				<clipPath id="SVGID_22_">
					<use xlink:href="#SVGID_89_"  style="overflow:visible;"/>
				</clipPath>
				<rect x="112.31" y="18.422" class="st28" width="3.256" height="0.613"/>
				<rect x="112.31" y="17.809" class="st28" width="3.256" height="0.614"/>
				<rect x="112.31" y="17.195" class="st28" width="3.256" height="0.613"/>
				<rect x="112.31" y="16.582" class="st28" width="3.256" height="0.613"/>
				<rect x="112.31" y="15.969" class="st28" width="3.256" height="0.613"/>
				<rect x="112.31" y="15.355" class="st28" width="3.256" height="0.614"/>
				<rect x="112.31" y="14.742" class="st28" width="3.256" height="0.613"/>
				<rect x="112.31" y="14.129" class="st28" width="3.256" height="0.613"/>
				<rect x="112.31" y="13.515" class="st28" width="3.256" height="0.614"/>
			</g>
			<g class="st27">
				<defs>
					<rect id="SVGID_91_" x="112.31" y="12.97" width="3.256" height="0.545"/>
				</defs>
				<clipPath id="SVGID_23_">
					<use xlink:href="#SVGID_91_"  style="overflow:visible;"/>
				</clipPath>
				<rect x="112.31" y="13.243" class="st29" width="3.256" height="0.273"/>
				<rect x="112.31" y="12.97" class="st29" width="3.256" height="0.273"/>
			</g>
		</g>
		<path class="st30" d="M129.209,31.984h-0.208l-0.211-1.357h-0.364l-0.029-0.189c0.248-0.022,0.347-0.051,0.361-0.358h0.151
			 M127.092,30.765c-0.098-0.621,0.262-0.684,0.43-0.684c0.269,0,0.519,0.216,0.575,0.571c0.053,0.339-0.106,0.483-0.314,0.634
			l-0.145,0.108c-0.189,0.144-0.213,0.292-0.21,0.365h0.843l0.035,0.225h-1.061c-0.051-0.396,0.062-0.607,0.246-0.754l0.182-0.146
			c0.148-0.117,0.255-0.195,0.216-0.444c-0.024-0.15-0.134-0.342-0.362-0.342c-0.294,0-0.255,0.335-0.242,0.468H127.092z
			 M126.431,31.088c0.177,0,0.342,0.115,0.382,0.371c0.048,0.298-0.114,0.361-0.255,0.361c-0.271,0-0.369-0.228-0.392-0.379
			C126.138,31.264,126.211,31.088,126.431,31.088z M126.822,30.571c-0.033-0.221-0.21-0.49-0.555-0.49
			c-0.369,0-0.417,0.326-0.387,0.522c0.028,0.178,0.125,0.307,0.267,0.369c-0.15,0.081-0.226,0.231-0.189,0.463
			c0.015,0.093,0.047,0.297,0.231,0.452c0.143,0.121,0.309,0.149,0.396,0.149c0.369,0,0.48-0.299,0.43-0.604
			c-0.021-0.143-0.098-0.355-0.326-0.464C126.749,30.925,126.864,30.841,126.822,30.571z M126.396,30.882
			c-0.142,0-0.289-0.11-0.317-0.29c-0.019-0.121,0.005-0.295,0.212-0.295c0.228,0,0.316,0.166,0.334,0.282
			C126.651,30.75,126.564,30.882,126.396,30.882z M125.527,31.984h-0.209l-0.213-1.357h-0.363l-0.029-0.189
			c0.247-0.022,0.347-0.051,0.361-0.358h0.151L125.527,31.984z M124.005,31.984h-1.171l-0.307-1.95h1.155l0.037,0.235h-0.94
			l0.093,0.595h0.868l0.037,0.235h-0.868l0.102,0.651h0.956L124.005,31.984z M121.174,30.259h0.399c0.29,0,0.511,0.248,0.588,0.74
			c0.078,0.491-0.06,0.76-0.336,0.76h-0.414L121.174,30.259z M121.232,31.984h0.632c0.519,0,0.585-0.565,0.516-1.002
			c-0.088-0.563-0.404-0.948-0.815-0.948h-0.64L121.232,31.984z M131.875,28.968h-1.17l-0.308-1.949h1.156l0.036,0.235h-0.941
			l0.095,0.593h0.867l0.038,0.236h-0.869l0.102,0.651h0.957L131.875,28.968z M129.061,27.244h0.532c0.106,0,0.289,0.025,0.337,0.327
			c0.045,0.289-0.112,0.338-0.27,0.338h-0.494L129.061,27.244z M129.202,28.134h0.517c0.257,0,0.313,0.187,0.339,0.347
			c0.012,0.073,0.065,0.368,0.113,0.488h0.263l-0.005-0.043c-0.074-0.046-0.091-0.086-0.11-0.194l-0.069-0.353
			c-0.052-0.271-0.15-0.321-0.248-0.366c0.088-0.074,0.191-0.18,0.145-0.469c-0.065-0.413-0.343-0.525-0.603-0.525h-0.732
			l0.307,1.95h0.214L129.202,28.134z M127.557,27.244h0.387c0.238,0,0.346,0.103,0.375,0.286c0.037,0.238-0.077,0.313-0.282,0.313
			h-0.387L127.557,27.244z M127.614,28.968h0.683c0.349,0,0.495-0.263,0.446-0.575c-0.053-0.335-0.25-0.424-0.362-0.475
			c0.161-0.101,0.17-0.28,0.15-0.408c-0.042-0.266-0.23-0.49-0.526-0.49h-0.698L127.614,28.968z M127.685,28.058h0.421
			c0.173,0,0.377,0.055,0.42,0.329c0.035,0.217-0.057,0.356-0.277,0.356h-0.457L127.685,28.058z M127.083,28.969l-0.181-1.153
			c-0.009-0.058-0.045-0.305-0.073-0.488l-0.193,1.64h-0.212l-0.704-1.637c0.024,0.18,0.068,0.427,0.076,0.485l0.182,1.153h-0.207
			l-0.307-1.952h0.307l0.713,1.65l0.194-1.65h0.305l0.307,1.952H127.083z M125.496,28.968h-1.171l-0.308-1.949h1.156l0.036,0.235
			h-0.941l0.094,0.593h0.868l0.037,0.236h-0.869l0.103,0.651h0.957L125.496,28.968z M123.937,28.969h-0.214l-0.307-1.952h0.214
			L123.937,28.969z M121.898,27.019h1.287l0.037,0.235h-0.536l0.27,1.715h-0.214l-0.271-1.715h-0.535L121.898,27.019z
			 M120.832,27.244h0.435c0.177,0,0.326,0.079,0.365,0.328c0.042,0.264-0.075,0.351-0.266,0.351h-0.426L120.832,27.244z
			 M120.974,28.149h0.499c0.345,0,0.423-0.308,0.379-0.579c-0.049-0.316-0.263-0.55-0.557-0.55h-0.713l0.307,1.95h0.213
			L120.974,28.149z M120.587,28.968h-1.17l-0.307-1.949h1.155l0.038,0.235h-0.942l0.094,0.593h0.868l0.037,0.236h-0.867l0.103,0.651
			h0.955L120.587,28.968z M118.662,27.589c-0.059-0.302-0.277-0.396-0.455-0.396c-0.135,0-0.355,0.046-0.308,0.342
			c0.026,0.166,0.129,0.22,0.227,0.247l0.472,0.127c0.215,0.06,0.394,0.212,0.442,0.522c0.074,0.462-0.255,0.589-0.528,0.589
			c-0.295,0-0.426-0.109-0.51-0.187c-0.156-0.149-0.209-0.312-0.238-0.495h0.199c0.056,0.353,0.307,0.456,0.511,0.456
			c0.156,0,0.409-0.049,0.364-0.328c-0.032-0.204-0.119-0.268-0.393-0.344l-0.34-0.093c-0.107-0.029-0.355-0.119-0.408-0.459
			c-0.049-0.304,0.066-0.602,0.45-0.602c0.553,0,0.671,0.407,0.714,0.621H118.662z M127.351,25.952h-1.17l-0.308-1.949h1.155
			l0.037,0.236h-0.941l0.094,0.593h0.869l0.036,0.234h-0.867l0.102,0.652h0.956L127.351,25.952z M124.521,24.229h0.399
			c0.289,0,0.512,0.247,0.588,0.738c0.078,0.491-0.06,0.76-0.337,0.76h-0.414L124.521,24.229z M124.578,25.952h0.633
			c0.52,0,0.586-0.563,0.518-1c-0.088-0.564-0.403-0.949-0.815-0.949h-0.64L124.578,25.952z M122.708,24.844
			c0.055-0.062,0.142-0.12,0.281-0.12c0.252,0,0.544,0.219,0.605,0.611c0.033,0.211,0.028,0.669-0.458,0.669
			c-0.204,0-0.479-0.1-0.583-0.526h0.2c0.055,0.222,0.205,0.32,0.38,0.32c0.201,0,0.296-0.198,0.258-0.437
			c-0.044-0.274-0.219-0.422-0.411-0.422c-0.113,0-0.204,0.065-0.258,0.182l-0.169-0.011l-0.044-1.022h0.803l0.036,0.234h-0.657
			L122.708,24.844z M122.123,25.953h-0.206l-0.214-1.357h-0.362l-0.03-0.188c0.248-0.022,0.347-0.051,0.361-0.358h0.153
			L122.123,25.953z M127.685,21.214h0.397c0.29,0,0.513,0.247,0.589,0.738c0.078,0.492-0.061,0.761-0.338,0.761h-0.412
			L127.685,21.214z M127.742,22.938h0.632c0.519,0,0.586-0.565,0.517-1.002c-0.088-0.562-0.403-0.948-0.814-0.948h-0.641
			L127.742,22.938z M126.447,22.138l0.118-0.857l0.374,0.857H126.447z M127.053,22.373l0.246,0.566h0.234l-0.881-1.948h-0.243
			l-0.288,1.948h0.22l0.077-0.566H127.053z M124.729,20.988h1.287l0.037,0.234h-0.537l0.271,1.715h-0.215l-0.27-1.715h-0.536
			L124.729,20.988z M123.614,21.214h0.533c0.106,0,0.288,0.025,0.336,0.327c0.045,0.289-0.112,0.338-0.268,0.338h-0.496
			L123.614,21.214z M123.755,22.104h0.518c0.258,0,0.313,0.187,0.339,0.347c0.011,0.074,0.065,0.368,0.113,0.487h0.263l-0.007-0.042
			c-0.072-0.046-0.09-0.087-0.109-0.195l-0.069-0.353c-0.052-0.271-0.149-0.321-0.247-0.366c0.089-0.075,0.192-0.18,0.145-0.469
			c-0.065-0.414-0.344-0.525-0.603-0.525h-0.733l0.308,1.95h0.214L123.755,22.104z M123.362,22.938h-1.17l-0.307-1.949h1.154
			l0.036,0.234h-0.94l0.094,0.595h0.866l0.037,0.234h-0.867l0.102,0.651h0.955L123.362,22.938z M120.639,21.214h0.387
			c0.239,0,0.347,0.103,0.376,0.285c0.037,0.239-0.077,0.314-0.283,0.314h-0.386L120.639,21.214z M120.696,22.938h0.681
			c0.349,0,0.496-0.263,0.447-0.575c-0.053-0.334-0.25-0.424-0.363-0.476c0.161-0.101,0.17-0.28,0.15-0.407
			c-0.042-0.266-0.229-0.491-0.526-0.491h-0.697L120.696,22.938z M120.768,22.028h0.42c0.174,0,0.377,0.054,0.421,0.329
			c0.034,0.217-0.056,0.355-0.279,0.355h-0.455L120.768,22.028z M120.331,22.938h-0.214l-0.307-1.95h0.215L120.331,22.938z
			 M119.035,22.703h0.803l0.037,0.235h-1.018l-0.307-1.949h0.215L119.035,22.703z"/>
		<path class="st0" d="M121.419,3.451c0,0-0.24-0.672-0.224-1.263l-0.256-0.326l0.256-0.457l0.1,0.284l-0.023-0.386l0.347-0.426
			l0.018,0.399l0.116-0.478l0.481-0.19l-0.048,0.34l0.166-0.371l0.52-0.047l-0.206,0.369l0.315-0.353l0.437,0.029l-0.216,0.333
			l0.312-0.333l0.538,0.141l-0.33,0.224l0.445-0.17l0.486,0.193l-0.378,0.161l0.469-0.066l0.328,0.325l-0.409,0.043
			c0.032,0.031,0.438,0.09,0.438,0.09l0.501,0.607l-0.39-0.055c0.209,0.925-0.346,2.252,0.202,2.776
			c4.258,4.075,17.514,10.489,15.38,26.278c-1.477,10.924-8.603,21.133-11.383,24.556c-2.771,3.409-5.474,7.881-5.474,7.881
			s-0.607-2.321,2.26-6.525c2.866-4.207,5.126-7.086,5.126-7.086s-4.407,4.095-6.604,5.756c-3.042,2.303-7.037,3.428-7.037,3.428
			s6.342-4.267,11.121-8.816c5.415-5.153,9.21-14.556,9.21-14.556s-1.39,2.578-2.086,3.476c-0.694,0.9-2.78,2.466-2.78,2.466
			s1.389-1.71,2.26-2.877c0.869-1.167,1.651-3.025,1.651-3.025s-0.869,0.993-1.651,1.895c-0.781,0.903-2.26,1.4-2.26,1.4
			s6.744-5.281,5.04-14.205c-1.564-8.187-6.082-10.34-6.082-10.34l-0.174,0.702l-0.957-1.174l-0.347,0.97l-1.651-1.232l-2.085-0.432
			c0,0-2.606-0.497-5.127-3.604c-1.382-1.705-0.172-5.206-0.172-5.206"/>
		<path class="st0" d="M121.778,3.708l-0.096,0.641c0,0-0.539,0.081-1.252-0.367"/>
		<path class="st0" d="M120.43,3.981c0,0,0.245-0.721,1.002-0.956l0.347,0.683"/>
		<path class="st4" d="M123.278,2.854c0,0.183-0.149,0.332-0.331,0.332c-0.184,0-0.334-0.149-0.334-0.332
			c0-0.184,0.149-0.332,0.334-0.332C123.129,2.522,123.278,2.67,123.278,2.854"/>
		<path class="st31" d="M123.236,2.854c0,0.16-0.13,0.29-0.29,0.29c-0.161,0-0.291-0.13-0.291-0.29c0-0.16,0.13-0.291,0.291-0.291
			C123.106,2.563,123.236,2.694,123.236,2.854"/>
		<path class="st0" d="M122.965,2.795c0,0.044-0.037,0.083-0.083,0.083c-0.045,0-0.082-0.038-0.082-0.083
			c0-0.046,0.038-0.082,0.082-0.082C122.928,2.713,122.965,2.749,122.965,2.795"/>
		<path class="st32" d="M121.246,8.698c0,0,0.624,0.697,1.151,0.708c0.342,0.007,0.835-0.271,0.835-0.271s0.328,0.956,0.836,1.01
			c0.299,0.031,0.732-0.24,0.732-0.24s0,0.418,0.105,0.935c0.104,0.52,0.627,0.916,0.627,0.916l0.314-0.432l1.256,1.409
			c0,0-2.616-0.096-4.079-1.498C121.559,9.834,121.246,8.698,121.246,8.698"/>
		<path class="st4" d="M125.123,10.089c-0.018-0.092,0.067,0.874,0.733,0.561c0.398-0.378,0.392,0.339,0.626,0.392
			c0.262,0.1,0.462-0.026,0.462,0c-0.646,0.497-0.931-0.278-0.931-0.278c-0.136,0.072-0.127,0.139-0.333,0.147
			C125.185,10.973,125.017,10.378,125.123,10.089"/>
		<path class="st4" d="M123.433,8.338c0.408,1.015,0.678,0.86,0.678,0.86c0.002-0.001,0.084,0.177,0.158,0.263
			c0.112,0.28,0.432-0.303,0.547,0.052c0.096,0.093,0.234-0.002,0.306-0.112c0.174-0.175,0.117,0.168,0.232,0.18
			c0.189,0.172,0.386,0.002,0.374,0.027c-0.006-0.008-0.321,0.42-0.536-0.107c-0.129,0.464-0.484,0.133-0.538,0.018
			c-0.48,0.654-0.554-0.243-0.569-0.241c-0.072,0.043-0.213,0.095-0.372-0.057C123.522,9.015,123.433,8.338,123.433,8.338"/>
		<path class="st4" d="M126.678,11.363c0.012-0.007-0.027,0.265,0.175,0.577c0.106,0.171,0.344,0.193,0.559,0.125
			c0.167-0.067,0.493-0.341,0.665-0.038c0.807,0.866,1.821,1.043,2.107,0.99c0.026,0.011-0.619,0.244-1.349-0.255
			c-0.314-0.149-0.876-0.634-1.01-0.74c-0.229,0.114-0.518,0.294-0.843,0.142C126.681,11.987,126.659,11.634,126.678,11.363"/>
		<path class="st4" d="M123.142,7.357c0.698,1.148,1.561,0.434,1.561,0.434c0.505,0.289,0.331,0.564,0.374,0.655
			c0.099,0.176,0.281,0.255,0.499,0.286c0.108,0.017,0.447-0.025,0.447-0.025c-0.055-0.058,0.373,1.299,0.806,0.657
			c0.549,0.638,0.207,0.555,0.547,0.622c0.603,0.344,0.276,0.505,0.597,0.542c0.048,0.007,0.107-0.01,0.161-0.01
			c0.281,0.472-0.103,0.522-0.105,0.588c0.596,0.547,1.519,0.022,1.359-0.031c0.024-0.012-0.133,0.36-0.701,0.419
			c-0.218-0.051-0.743,0.212-0.916-0.456c0.009-0.145-0.259-0.238-0.38-0.521c-0.04-0.064-0.061-0.131-0.085-0.199
			c-0.009-0.038-0.659,0.326-0.639-0.473c-0.257,0.215-0.685-0.049-0.818-0.487c-0.036-0.095-0.052-0.189-0.053-0.279
			c0,0-1.246,0.302-1.196-0.969C124.6,8.11,123.424,8.853,123.142,7.357"/>
		<path class="st4" d="M131.311,12.15c-0.025,0.005,2.158,1.004,4.619,3.703c2.486,2.613,4.837,7.358,4.671,12.63
			c-0.183,5.775-2.967,11.231-4.997,15.2c-2.102,4.014-4.261,6.294-4.29,6.253c0.09,0.103,3.5-4.126,6.435-11.65
			c1.465-3.709,3.02-8.325,2.116-13.344C139.126,19.981,135.976,15.047,131.311,12.15"/>
		<path class="st4" d="M130.63,12.271l0.084,0.066c0.717,0.481,5.661,3.587,8.047,9.435c2.265,7.224-0.788,15.224-1.098,14.923
			c0.13,0.083,1.196-2.433,1.444-6.589c-0.311,1.874-0.955,3.877-2.025,5.685c0.112-0.231,1.159-2.912,1.588-6.01
			c0.595-3.202-0.037-6.722-0.187-7.378c-0.278-0.847-0.648-1.691-1.132-2.521c-1.543-2.794-3.897-5.402-6.638-7.545
			C130.647,12.292,130.618,12.27,130.63,12.271"/>
		<path class="st4" d="M137.74,39.07c0,0-4.745,9.629-7.703,12.776c-2.96,3.147-5.073,7.092-5.825,9.394
			c-0.75,2.301-0.329,2.16-0.329,2.16s0.751-3.522,3.711-7.515c2.959-3.993,6.528-9.394,6.999-10.099
			C135.062,45.082,137.505,40.526,137.74,39.07"/>
		<path class="st0" d="M134.281,35.721c0,0-0.312,0.577-0.535,0.93c-0.3,0.475-0.647,0.822-0.647,0.822l3.651,3.725l2.897,4.154
			l1.619-1.092l0.094,0.026c0,0-1.31-1.208-1.483-1.997c-0.174-0.79-0.088-1.307-0.088-1.307l-1.273-1.203"/>
		<path class="st0" d="M139.63,45.834c0,0-0.623,0.325-1.056-0.041c-0.435-0.366-0.783-1.163-0.783-1.163l0.578-1.186l0.378,0.619
			c0,0-0.426,0.091-0.262,0.509c0.349,0.883,0.957,0.475,0.957,0.475l0.43,0.674"/>
		<path class="st2" d="M141.353,44.262l2,1.909l0.868-0.048l5.559,5.972c0,0,0.958,0.562,0.87,0.993
			c-0.087,0.431-0.695,1.013-0.695,1.013s-2.085,2.43-2.694,2.318c-0.608-0.113-7.647-11.102-7.647-11.102"/>
		<path class="st5" d="M141.149,44.368l1.981,2.051l1.581,0.772l4.968,5.825c0,0-0.509,1.575-0.767,2.139
			c0,0,2.031-2.04,2.011-2.386c-0.021-0.347-0.894-1.069-0.894-1.069l-5.531-5.785l-1.096,0.169l-2.028-1.845"/>
		<polyline class="st2" points="138.211,40.623 135.777,38.26 134.5,38.892 136.77,41.21 137.069,41.651 		"/>
		<path class="st2" d="M119.333,60.712l0.349-0.883c4.492-2.415,10.948-2.988,10.948-2.988s0.52,0.522,0.347,0.507
			c-0.694-0.058-1.998,0.347-1.998,0.347l-0.781,0.207C128.197,57.9,123.868,58.219,119.333,60.712"/>
		<path class="st0" d="M150.014,13.808c0,0-1.938-0.305-2.967-1.326c-1.031-1.018-3.471-4.761-3.471-4.761s2.5,0.853,3.608,1.776
			C148.295,10.419,150.014,13.808,150.014,13.808"/>
		<path class="st4" d="M143.765,7.981c0,0,1.404,2.018,2.144,3.043c0.74,1.025,3.036,2.536,3.897,2.624"/>
		<path class="st0" d="M148.836,10.763c0,0-2.085-1.301-2.346-2.767c-0.26-1.466-0.781-3.789-0.781-3.789s0.522,0.847,1.651,2.189
			c1.129,1.341,1.303,2.464,1.391,3.154C148.836,10.242,148.836,10.763,148.836,10.763"/>
		<path class="st4" d="M145.744,4.405c0,0,0.556,3.333,0.926,4.111c0.37,0.778,2.149,2.111,2.149,2.111"/>
		<path class="st0" d="M131.018,47.379c0.581,0.768,3.178,4.067,3.251,4.193l-0.218,0.67l-0.319-0.36
			c-0.065-0.099-3.363-3.544-3.363-3.544"/>
		<path class="st0" d="M131.091,47.271l3.391,4.26l-0.191,0.191c-0.346-0.442-3.385-4.179-3.385-4.179"/>
		<path class="st0" d="M134.181,52.358c0-0.246,0.263-0.446,0.585-0.446c0.324,0,0.586,0.201,0.586,0.446
			c0,0.047-0.013,0.093-0.031,0.135c0.306,0.016,0.549,0.207,0.549,0.443c0,0.047-0.013,0.093-0.031,0.135
			c0.305,0.015,0.548,0.207,0.548,0.443c0,0.047-0.014,0.093-0.031,0.135c0.305,0.014,0.547,0.207,0.547,0.443
			c0,0.048-0.011,0.092-0.03,0.135c0.307,0.015,0.548,0.206,0.548,0.443c0,0.048-0.013,0.093-0.031,0.135
			c0.306,0.015,0.549,0.206,0.549,0.442c0,0.048-0.013,0.092-0.03,0.135c0.305,0.015,0.548,0.207,0.548,0.443
			c0,0.048-0.012,0.092-0.03,0.136c0.306,0.014,0.548,0.205,0.548,0.442c0,0.246-0.261,0.446-0.586,0.446
			c-0.323,0-0.587-0.201-0.587-0.446c0-0.047,0.013-0.093,0.031-0.135c-0.305-0.016-0.547-0.207-0.547-0.443
			c0-0.047,0.011-0.093,0.03-0.135c-0.305-0.014-0.548-0.207-0.548-0.443c0-0.047,0.012-0.091,0.03-0.134
			c-0.305-0.015-0.549-0.206-0.549-0.443c0-0.047,0.013-0.092,0.031-0.135c-0.305-0.015-0.548-0.206-0.548-0.443
			c0-0.047,0.012-0.092,0.032-0.135c-0.307-0.014-0.55-0.206-0.55-0.442c0-0.047,0.014-0.092,0.031-0.135
			c-0.305-0.015-0.548-0.205-0.548-0.443c0-0.047,0.012-0.091,0.031-0.135C134.422,52.787,134.181,52.594,134.181,52.358"/>
		<path class="st0" d="M133.031,51.68c0.287,0,0.521,0.233,0.521,0.519c0,0.015-0.004,0.027-0.004,0.04
			c0.027,0.004,0.054,0.006,0.083-0.001c0.073-0.031,0.263-0.218,0.404-0.356c0.462-0.452,1.094-1.074,1.853-0.965
			c1.008,0.143,1.658,0.401,2.414,1.41c0.466,0.621,0.899,1.602,0.713,2.49c-0.113,0.544-0.448,0.987-0.966,1.283l-0.312-0.549
			c0.362-0.205,0.585-0.496,0.661-0.863c0.143-0.684-0.235-1.496-0.6-1.983c-0.635-0.848-1.11-1.038-1.999-1.165
			c-0.449-0.064-0.954,0.43-1.322,0.792c-0.27,0.266-0.466,0.457-0.68,0.513c-0.281,0.076-0.531-0.006-0.721-0.13
			c-0.014,0.001-0.029,0.005-0.043,0.005c-0.287,0-0.52-0.233-0.52-0.521C132.512,51.913,132.744,51.68,133.031,51.68"/>
		<path class="st0" d="M132.782,51.864c0.288,0,0.521,0.232,0.521,0.521c0,0.013-0.004,0.025-0.006,0.038
			c0.028,0.005,0.056,0.007,0.083-0.001c0.075-0.032,0.264-0.218,0.405-0.356c0.462-0.453,1.095-1.074,1.853-0.966
			c1.007,0.144,1.657,0.402,2.414,1.411c0.467,0.621,0.898,1.602,0.713,2.49c-0.113,0.544-0.448,0.987-0.967,1.283l-0.311-0.549
			c0.362-0.207,0.585-0.496,0.661-0.863c0.142-0.683-0.235-1.496-0.6-1.983c-0.637-0.847-1.111-1.038-2-1.165
			c-0.451-0.064-0.954,0.431-1.322,0.793c-0.27,0.265-0.465,0.458-0.68,0.515c-0.282,0.075-0.531-0.007-0.721-0.131
			c-0.014,0.002-0.029,0.004-0.044,0.004c-0.287,0-0.52-0.231-0.52-0.519C132.261,52.096,132.494,51.864,132.782,51.864"/>
		<path class="st0" d="M133.867,52.358c0-0.246,0.26-0.446,0.584-0.446c0.323,0,0.585,0.201,0.585,0.446
			c0,0.047-0.012,0.093-0.029,0.135c0.305,0.016,0.547,0.207,0.547,0.443c0,0.047-0.012,0.093-0.031,0.135
			c0.305,0.015,0.548,0.207,0.548,0.443c0,0.047-0.012,0.093-0.03,0.135c0.305,0.014,0.548,0.207,0.548,0.443
			c0,0.048-0.012,0.092-0.031,0.135c0.306,0.015,0.548,0.206,0.548,0.443c0,0.048-0.011,0.093-0.029,0.135
			c0.304,0.015,0.547,0.206,0.547,0.442c0,0.048-0.013,0.092-0.031,0.135c0.306,0.015,0.548,0.207,0.548,0.443
			c0,0.048-0.012,0.092-0.029,0.136c0.304,0.014,0.546,0.205,0.546,0.442c0,0.246-0.261,0.446-0.586,0.446
			c-0.324,0-0.586-0.201-0.586-0.446c0-0.047,0.013-0.093,0.03-0.135c-0.305-0.016-0.547-0.207-0.547-0.443
			c0-0.047,0.012-0.093,0.031-0.135c-0.307-0.014-0.547-0.207-0.547-0.443c0-0.047,0.011-0.091,0.03-0.134
			c-0.305-0.015-0.55-0.206-0.55-0.443c0-0.047,0.014-0.092,0.031-0.135c-0.306-0.015-0.547-0.206-0.547-0.443
			c0-0.047,0.012-0.092,0.03-0.135c-0.304-0.014-0.547-0.206-0.547-0.442c0-0.047,0.012-0.092,0.03-0.135
			c-0.305-0.015-0.549-0.205-0.549-0.443c0-0.047,0.013-0.091,0.031-0.135C134.108,52.787,133.867,52.594,133.867,52.358"/>
		<path class="st5" d="M134.022,52.358c0.046-0.525,0.586-0.446,0.586-0.446s-0.333,0.209-0.271,0.446
			c0.073,0.276,0.353,0.293,0.353,0.293s-0.033,0.195,0.127,0.404c0.132,0.17,0.39,0.174,0.39,0.174s0.006,0.223,0.135,0.415
			c0.105,0.159,0.383,0.163,0.383,0.163s-0.015,0.244,0.169,0.429c0.144,0.144,0.349,0.149,0.349,0.149s-0.025,0.249,0.137,0.429
			c0.118,0.131,0.38,0.147,0.38,0.147s-0.018,0.266,0.145,0.43c0.131,0.132,0.373,0.147,0.373,0.147s-0.059,0.22,0.166,0.431
			c0.034,0.033,0.351,0.148,0.351,0.148s-0.075,0.189,0.083,0.429c0.143,0.223,0.353,0.302,0.353,0.302s-0.551-0.013-0.586-0.446
			c-0.003-0.047,0.014-0.093,0.031-0.135c-0.307-0.016-0.549-0.207-0.549-0.443c0-0.047,0.013-0.093,0.031-0.135
			c-0.306-0.014-0.547-0.207-0.547-0.443c0-0.047,0.012-0.091,0.03-0.134c-0.306-0.015-0.548-0.206-0.548-0.443
			c0-0.047,0.013-0.092,0.03-0.135c-0.306-0.015-0.547-0.206-0.547-0.443c0-0.047,0.012-0.092,0.031-0.135
			c-0.305-0.014-0.549-0.206-0.549-0.442c0-0.047,0.013-0.092,0.03-0.135c-0.305-0.015-0.548-0.205-0.548-0.443
			c0-0.047,0.012-0.091,0.029-0.135C134.265,52.787,134.002,52.594,134.022,52.358"/>
		<path class="st0" d="M114.953,13.439c-0.778-0.687-1.664-0.282-1.664-0.282c-1.867,0.943-1.741,3.835-1.741,3.835
			c0.642-3.041,1.825-3.429,1.825-3.429c1.453-0.59,2.002,1.269,2.002,1.269l-1.436,0.115c-1.031,0.052-1.133,1.411-1.133,1.411
			c-0.161,1.622,1.166,2.257,1.166,2.257c1.597,0.635,1.85-1.869,1.85-1.869C116.043,14.461,114.953,13.439,114.953,13.439z
			 M114.463,18.367c0,0-1.098-0.035-1.326-1.463c0,0-0.136-1.349,0.6-1.569c0,0,0.6-0.255,0.71,1.649l1.022-0.071
			C115.469,16.912,115.41,18.384,114.463,18.367z M115.519,16.568l-0.786,0.053c-0.101-0.899-0.405-1.384-0.405-1.384l1.149-0.07
			C115.587,15.96,115.519,16.568,115.519,16.568z"/>
		<path class="st1" d="M111.944,35.245c0,0-0.394,1.288,0.584,2.052c0,0,1.014,0.561,1.491-0.835c0,0,0.441-0.835,0.059-2.41
			c0,0-0.417-1.706-2.088-1.11c0,0-1.921,0.584-1.372,3.221c0,0,0.38,2.068,2.719,2.215l0.538-0.414c0,0-1.503,0.584-2.648-1.205
			c0,0-1.181-2.219,0.692-3.412c0,0,1.706-1.014,1.956,1.479l-1.133-0.048C112.743,34.78,112.206,34.481,111.944,35.245z
			 M113.889,35.161c0,0,0.059,0.346-0.072,0.835l-0.441,0.024c0,0-0.096-0.644-0.25-0.895L113.889,35.161z M113.733,36.343
			c0,0-0.263,0.859-0.895,0.727c0,0-0.811-0.322-0.596-1.718c0,0,0.143-0.549,0.489-0.179c0,0,0.334,0.334,0.322,1.181
			L113.733,36.343z"/>
	</g>
	<line class="st33" x1="0" y1="58.401" x2="94.344" y2="58.401"/>
	<line class="st33" x1="0" y1="108.412" x2="247.216" y2="108.412"/>
	<line class="st33" x1="153.424" y1="58.401" x2="247.767" y2="58.401"/>
	<text transform="matrix(1 0 0 1 50.9911 80.6783)"><tspan x="0" y="0" class="st0 st34 st35">MINISTERIO DE</tspan><tspan x="-44.327" y="19.2" class="st0 st34 st35">RELACIONES EXTERIORES</tspan></text>
</g>
</svg>
